<?xml version="1.0" encoding="iso-8859-1"?>
<!-- Generator: Adobe Illustrator 19.0.0, SVG Export Plug-In . SVG Version: 6.00 Build 0)  -->
<svg version="1.1" id="Layer_1" xmlns="http://www.w3.org/2000/svg" xmlns:xlink="http://www.w3.org/1999/xlink" x="0px" y="0px"
	 viewBox="0 0 330 330" style="enable-background:new 0 0 330 330;" xml:space="preserve">
<g id="XMLID_479_">
	<path fill="#818181" id="XMLID_481_" d="M165,330c63.411,0,115-51.589,115-115c0-29.771-11.373-56.936-30-77.379V85c0-46.869-38.131-85-85-85
		S80,38.131,80,85v52.621C61.373,158.064,50,185.229,50,215C50,278.411,101.589,330,165,330z M207.481,204.356l-42.5,42.5
		c-2.929,2.929-6.768,4.394-10.606,4.394s-7.678-1.465-10.606-4.394l-21.25-21.25c-5.858-5.858-5.858-15.354,0-21.213
		c5.857-5.858,15.355-5.858,21.213,0l10.644,10.643l31.894-31.893c5.857-5.858,15.355-5.858,21.213,0
		C213.34,189.002,213.34,198.498,207.481,204.356z M110,85c0-30.327,24.673-55,55-55s55,24.673,55,55v29.029
		C203.652,105.088,184.91,100,165,100s-38.652,5.088-55,14.029V85z"/>
</g>
<g>
</g>
<g>
</g>
<g>
</g>
<g>
</g>
<g>
</g>
<g>
</g>
<g>
</g>
<g>
</g>
<g>
</g>
<g>
</g>
<g>
</g>
<g>
</g>
<g>
</g>
<g>
</g>
<g>
</g>
</svg>
